# xmcd
#
# Track frame offsets:
#	150
#	12446
#	24225
#	38593
#	50395
#	64285
#	76957
#	103055
#	116802
#	129399
#	142926
#	155606
#	169390
#	185068
#
# Disc length: 2617
#
# Revision: 1
# Processed by: cddbd v1.5.1PL0 Copyright (c) Steve Scherf et al.
# Submitted via: dBpowerAMP V4.0
# Normalized: r0:DSETVAR1,TDELIM( - )
#
DISCID=bb0a370e
DTITLE=Various Artist - Every day i have the blues cd1
DYEAR=2000
DGENRE=blues
TTITLE0=John lee hooker - i'm in the mood
TTITLE1=Robert Johnsen - hellhound on my trail
TTITLE2=Bessie Smith - St. Louis Blues
TTITLE3=Muddy Waters - Kind hearted woman
TTITLE4=Robert Nighthawk - Black angel blues
TTITLE5=Bukka White - Fixin' to die blues
TTITLE6=B.B. King - Guess who
TTITLE7=Blinde Willie Johnson - Lord, i just can't keep from crying
TTITLE8=Brownie McGhee - Key to my door
TTITLE9=Big Bill Broonzy - C and A blues
TTITLE10=Roosevelt Sykes - Roosevelt blues
TTITLE11=Lonnie Johnson - I have to do my time
TTITLE12=Tampa Red - Sugar mama blues No.1
TTITLE13=Champion Jack Dupree - Heavy heart blues
EXTD=
EXTT0=
EXTT1=
EXTT2=
EXTT3=
EXTT4=
EXTT5=
EXTT6=
EXTT7=
EXTT8=
EXTT9=
EXTT10=
EXTT11=
EXTT12=
EXTT13=
PLAYORDER=
